<svg width="80" height="88" viewBox="0 0 80 88" fill="none" xmlns="http://www.w3.org/2000/svg">
<path d="M29.5248 79.7962C32.1523 77.0614 33.3715 73.2883 34.2821 69.6384C34.2886 69.6148 34.2999 69.5926 34.3152 69.5733C34.3305 69.554 34.3495 69.5381 34.3711 69.5264C34.3926 69.5148 34.4162 69.5077 34.4404 69.5057C34.4646 69.5037 34.4889 69.5067 34.5116 69.5146C34.5784 69.5385 34.6354 69.5836 34.6741 69.6433C34.7128 69.703 34.7312 69.774 34.7265 69.846C34.5404 72.8871 33.744 75.8718 32.3857 78.6187C44.6162 68.5969 57.2694 52.2473 51.7006 35.8173C48.5554 39.1913 44.7198 42.2489 40.1096 43.1253C37.4509 43.7209 34.6931 43.4911 32.2019 42.4662C26.1073 39.9941 23.3566 32.2658 27.1341 26.7027C33.9895 16.6073 48.5527 21.4742 53.6454 31.7065C57.8623 26.7679 61.4494 21.2713 64.5781 15.5799C64.5946 15.5488 64.6224 15.5253 64.6555 15.5143C64.6885 15.5033 64.7243 15.5058 64.755 15.5211C64.7803 15.5331 64.8028 15.5501 64.8213 15.5711C64.8399 15.5921 64.854 15.6166 64.863 15.6433C64.8721 15.67 64.8757 15.6983 64.8738 15.7267C64.8719 15.755 64.8645 15.7829 64.852 15.8086C61.9166 21.839 58.4553 27.6288 54.2565 32.8823C62.3462 50.3046 48.6981 69.8011 33.878 78.6101C36.1542 77.2583 40.0244 78.3351 41.6488 79.4981C41.7044 79.5313 41.7444 79.5852 41.7606 79.6485C41.7767 79.7118 41.7676 79.7795 41.7353 79.8373C41.7017 79.8876 41.6554 79.9281 41.6013 79.9545C41.5472 79.9808 41.4874 79.9919 41.4282 79.9866C37.791 79.6684 34.5043 80.3259 30.5647 81.7126C28.9482 82.2811 27.5065 81.8982 29.5248 79.7962ZM49.2463 31.1324C44.8478 24.1754 33.0479 21.399 28.9947 28.4471C26.6442 32.5308 28.0683 37.7633 32.0858 40.0137C34.4229 41.3169 37.1537 41.7518 39.8122 41.2442C44.2469 40.5087 47.9931 37.5864 51.1414 34.4247C50.6165 33.2666 49.9819 32.1642 49.2463 31.1324Z" fill="url(#paint0_linear_482_1670)"/>
<path d="M29.4623 19.5832C30.3033 19.1908 31.1099 18.725 31.8727 18.1911C31.906 18.1678 31.931 18.1341 31.9437 18.0954C31.9565 18.0567 31.9563 18.0151 31.9432 17.9771C31.9301 17.9391 31.9048 17.9068 31.8712 17.8852C31.8377 17.8636 31.7978 17.854 31.7577 17.8578C31.2658 17.9183 30.789 18.0784 30.356 18.3286C29.9231 18.5787 29.5429 18.9136 29.2385 19.313C29.2148 19.3464 29.2026 19.3866 29.2038 19.4272C29.205 19.4679 29.2195 19.5067 29.2451 19.5376C29.2706 19.5684 29.3058 19.5897 29.3451 19.5979C29.3844 19.6062 29.4256 19.601 29.4623 19.5832Z" fill="url(#paint1_linear_482_1670)"/>
<path d="M34.2257 17.3369C38.7415 16.7716 43.6259 17.4046 47.8793 19.8914C47.9634 19.9487 48.0433 19.8154 47.981 19.7421C44.6967 15.9739 38.4844 15.2009 34.1863 17.1698C34.1693 17.1797 34.1559 17.1948 34.1481 17.2129C34.1403 17.2309 34.1385 17.2509 34.143 17.2698C34.1474 17.2887 34.1579 17.3055 34.1729 17.3176C34.1878 17.3297 34.2064 17.3365 34.2257 17.3369Z" fill="url(#paint2_linear_482_1670)"/>
<path d="M52.1262 65.5941C51.1382 67.3621 49.8729 68.9609 48.3806 70.327C48.3713 70.3373 48.3658 70.3505 48.365 70.3642C48.3641 70.3779 48.368 70.3914 48.3759 70.4024C48.3838 70.4134 48.3954 70.4213 48.4085 70.4246C48.4217 70.4279 48.4357 70.4265 48.4481 70.4207C50.3208 69.5365 51.7595 67.6504 52.2384 65.6342C52.2403 65.6202 52.2374 65.6061 52.2303 65.5942C52.2231 65.5823 52.2121 65.5733 52.1991 65.5687C52.1861 65.564 52.1718 65.564 52.1585 65.5686C52.1453 65.5732 52.1339 65.5822 52.1262 65.5941Z" fill="url(#paint3_linear_482_1670)"/>
<defs>
<linearGradient id="paint0_linear_482_1670" x1="25.9595" y1="34.6396" x2="58.7293" y2="56.9721" gradientUnits="userSpaceOnUse">
<stop stop-color="#F66EFF"/>
<stop offset="1" stop-color="#04D2FF"/>
</linearGradient>
<linearGradient id="paint1_linear_482_1670" x1="30.0397" y1="18.3678" x2="31.255" y2="19.196" gradientUnits="userSpaceOnUse">
<stop stop-color="#F66EFF"/>
<stop offset="1" stop-color="#04D2FF"/>
</linearGradient>
<linearGradient id="paint2_linear_482_1670" x1="36.7012" y1="15.3769" x2="46.7922" y2="22.2539" gradientUnits="userSpaceOnUse">
<stop stop-color="#F66EFF"/>
<stop offset="1" stop-color="#04D2FF"/>
</linearGradient>
<linearGradient id="paint3_linear_482_1670" x1="50.1384" y1="67.8969" x2="50.9306" y2="68.4367" gradientUnits="userSpaceOnUse">
<stop stop-color="#F66EFF"/>
<stop offset="1" stop-color="#04D2FF"/>
</linearGradient>
</defs>
</svg>
