<svg width="30" height="30" viewBox="0 0 30 30" fill="none" xmlns="http://www.w3.org/2000/svg">
<path d="M9.3572 2.79739C9.48479 0.928165 11.8625 0.217975 12.9588 1.72166L17.7731 8.32532C18.1157 8.79535 18.6468 9.08954 19.227 9.13072L27.3745 9.70912C29.2093 9.83937 29.8839 12.1883 28.4079 13.3075L21.8537 18.2771C21.387 18.631 21.0954 19.1709 21.0555 19.7551L20.4952 27.9641C20.3676 29.8334 17.9899 30.5435 16.8937 29.0399L12.0794 22.4362C11.7367 21.9662 11.2056 21.672 10.6255 21.6308L2.47795 21.0524C0.643093 20.9221 -0.0314905 18.5732 1.44455 17.454L7.99876 12.4844C8.46547 12.1306 8.757 11.5907 8.79688 11.0064L9.3572 2.79739Z" fill="url(#paint0_linear_364_9839)"/>
<defs>
<linearGradient id="paint0_linear_364_9839" x1="10.6554" y1="0.293495" x2="20.8261" y2="34.3449" gradientUnits="userSpaceOnUse">
<stop stop-color="#F66EFF"/>
<stop offset="1" stop-color="#04D2FF"/>
</linearGradient>
</defs>
</svg>
