<svg width="102" height="95" viewBox="0 0 102 95" fill="none" xmlns="http://www.w3.org/2000/svg">
<path d="M49.1089 73.5739C51.9206 72.4136 54.0835 70.2334 56.536 68.4969C56.5889 68.4614 56.6608 68.4569 56.7374 68.4844C56.8139 68.5118 56.8894 68.5692 56.9488 68.6449C57.0426 68.7673 57.1107 68.906 57.1446 69.0433C57.1784 69.1806 57.1764 69.3105 57.1389 69.4164C56.6611 70.7648 55.0252 73.4258 52.8387 73.6025C63.7182 72.7226 86.6285 70.503 69.2738 50.5893C62.951 42.6425 55.6222 35.4158 48.5499 28.1696C38.9363 18.8249 30.7226 9.27539 45.0469 9.67276C45.2044 9.67815 45.3774 9.74818 45.5369 9.87116C45.6963 9.99414 45.8327 10.1626 45.9232 10.3484C45.9479 10.4009 45.9639 10.4546 45.97 10.506C45.9761 10.5574 45.9722 10.6054 45.9586 10.6468C45.945 10.6881 45.922 10.722 45.891 10.7462C45.8601 10.7703 45.8219 10.7841 45.779 10.7868C32.8157 11.6406 41.1167 18.4053 49.7877 26.2046C59.1399 34.8587 69.2159 43.6012 77.1089 54.56C91.3958 75.9711 66.2841 79.4948 53.0757 74.6786C55.3724 75.6148 58.5376 78.9848 59.1264 80.2467C59.2007 80.3818 59.2401 80.5247 59.2388 80.6534C59.2374 80.7821 59.1952 80.8894 59.1188 80.959C59.0645 80.9984 58.9934 81.0121 58.9147 80.9981C58.836 80.9842 58.7536 80.9433 58.6782 80.8809C56.0081 78.6544 53.1199 77.0358 50.2682 76.1679C48.0453 75.4458 48.1581 73.9636 49.1089 73.5739Z" fill="url(#paint0_linear_485_1649)"/>
<path d="M61.654 47.1453C68.2075 52.0392 73.1134 61.2137 69.4214 63.6515C69.3961 63.6669 69.3631 63.6694 69.3277 63.6587C69.2923 63.6479 69.2566 63.6244 69.2262 63.5921C69.1959 63.5597 69.1728 63.5204 69.1606 63.4804C69.1484 63.4403 69.1479 63.402 69.159 63.3715C70.2272 60.295 67.7664 53.7986 61.4781 47.5151C61.4248 47.466 61.3833 47.4016 61.3621 47.3352C61.3409 47.2688 61.3416 47.2054 61.3642 47.1581C61.3867 47.1107 61.4293 47.083 61.4832 47.0807C61.5371 47.0783 61.5982 47.1014 61.654 47.1453Z" fill="url(#paint1_linear_485_1649)"/>
<path d="M57.5465 43.65C57.743 44.0202 57.9946 44.3682 58.2852 44.6721C58.5759 44.976 58.8993 45.2292 59.2353 45.4157C59.2883 45.4434 59.3418 45.4554 59.3893 45.4503C59.4368 45.4452 59.4764 45.4232 59.5035 45.3869C59.5306 45.3506 59.5442 45.3015 59.5425 45.2453C59.5408 45.1892 59.524 45.1282 59.494 45.0696C59.2982 44.7001 59.0472 44.3527 58.7571 44.0495C58.4669 43.7463 58.144 43.494 57.8086 43.3085C57.7557 43.2806 57.7024 43.2683 57.6549 43.273C57.6074 43.2777 57.5677 43.2992 57.5402 43.3349C57.5128 43.3707 57.4988 43.4192 57.4999 43.475C57.501 43.5308 57.5172 43.5914 57.5465 43.65Z" fill="url(#paint2_linear_485_1649)"/>
<defs>
<linearGradient id="paint0_linear_485_1649" x1="32.5553" y1="22.8136" x2="73.6494" y2="78.583" gradientUnits="userSpaceOnUse">
<stop stop-color="#F66EFF"/>
<stop offset="1" stop-color="#04D2FF"/>
</linearGradient>
<linearGradient id="paint1_linear_485_1649" x1="61.4128" y1="48.9729" x2="71.5411" y2="62.718" gradientUnits="userSpaceOnUse">
<stop stop-color="#F66EFF"/>
<stop offset="1" stop-color="#04D2FF"/>
</linearGradient>
<linearGradient id="paint2_linear_485_1649" x1="57.8211" y1="43.4131" x2="59.4064" y2="45.5646" gradientUnits="userSpaceOnUse">
<stop stop-color="#F66EFF"/>
<stop offset="1" stop-color="#04D2FF"/>
</linearGradient>
</defs>
</svg>
