<svg width="100" height="104" viewBox="0 0 100 104" fill="none" xmlns="http://www.w3.org/2000/svg">
<path d="M62.7372 95.1638C58.5854 92.8328 56.1115 89.8455 54.1784 85.5033C53.65 85.0083 53.7185 86.1303 53.7037 86.4337C53.6675 89.1344 55.7377 91.8951 57.5107 93.9673C50.4481 91.0738 42.7211 86.4143 38.7276 79.8346C33.9492 72.3039 33.3784 61.1503 40.2338 54.7305C45.1372 57.8997 51.2292 60.2458 57.1535 59.2628C64.657 57.2786 63.0089 49.1994 55.9085 47.0857C50.1494 45.3723 43.7998 47.0437 38.9694 50.5145C21.2108 35.0597 27.9261 10.9173 48.0988 1.49278C48.1241 1.48216 48.147 1.46649 48.166 1.44675C48.185 1.427 48.1998 1.40358 48.2094 1.37793C48.2191 1.35227 48.2234 1.32491 48.2222 1.29753C48.2209 1.27014 48.214 1.2433 48.2021 1.21865C48.1919 1.19383 48.177 1.17128 48.1581 1.15231C48.1392 1.13334 48.1166 1.11832 48.0919 1.10815C48.0671 1.09798 48.0405 1.09284 48.0137 1.09305C47.9869 1.09326 47.9604 1.09881 47.9358 1.10937C26.3638 10.0744 19.1858 35.559 37.0107 52.2064C32.0014 57.0492 30.3115 64.5617 31.6633 71.2513C33.9376 83.268 45.6464 92.324 57.095 95.1131C55.9657 95.6865 54.6552 95.8121 53.5268 96.3786C52.2064 97.0425 50.4365 99.0981 51.4899 99.1201C52.7658 98.5081 54.0867 97.9949 55.4412 97.5851C56.8031 97.1467 58.3551 96.6941 59.7353 96.3202L59.9994 96.2553L62.6669 95.5664C62.7095 95.5568 62.7483 95.5347 62.7784 95.503C62.8085 95.4714 62.8285 95.4315 62.836 95.3885C62.8436 95.3455 62.8382 95.3012 62.8206 95.2612C62.803 95.2212 62.774 95.1873 62.7372 95.1638ZM50.3598 50.2515C58.2762 48.8449 62.5055 56.2986 54.2057 56.5208C50.062 56.3272 46.0304 55.1129 42.4691 52.9858C44.8546 51.4808 47.5546 50.5452 50.3598 50.2515Z" fill="url(#paint0_linear_482_1638)"/>
<path d="M24.1716 24.0915C24.1996 24.0923 24.2268 24.1002 24.2509 24.1144C24.275 24.1285 24.2952 24.1485 24.3095 24.1724C24.3239 24.1964 24.332 24.2236 24.3332 24.2515C24.3343 24.2794 24.3284 24.3072 24.316 24.3322C22.0869 28.9145 22.5892 34.9448 25.0697 38.7247C25.0924 38.7583 25.1013 38.7994 25.0948 38.8394C25.0883 38.8795 25.0667 38.9155 25.0345 38.9402C25.0019 38.9647 24.9622 38.9777 24.9214 38.9772C24.8807 38.9767 24.8413 38.9628 24.8094 38.9375C20.6374 35.6045 21.3349 28.4188 23.8972 24.2492C23.9262 24.2013 23.9675 24.1621 24.0169 24.1358C24.0662 24.1094 24.1218 24.0968 24.1777 24.0994L24.1716 24.0915Z" fill="url(#paint1_linear_482_1638)"/>
<path d="M65.7433 53.4278C67.8131 55.5795 65.9612 59.3251 63.1556 59.7119C63.1367 59.7151 63.1174 59.7118 63.1006 59.7026C63.0839 59.6933 63.0708 59.6787 63.0634 59.6611C63.0561 59.6435 63.0549 59.6239 63.06 59.6055C63.0652 59.5871 63.0765 59.571 63.092 59.5598C65.0119 58.0829 66.2794 55.9458 65.6009 53.5122C65.5948 53.4938 65.5951 53.4739 65.6019 53.4558C65.6086 53.4376 65.6214 53.4224 65.638 53.4125C65.6547 53.4026 65.6742 53.3988 65.6934 53.4015C65.7125 53.4043 65.7302 53.4136 65.7433 53.4278Z" fill="url(#paint2_linear_482_1638)"/>
<path d="M25.0342 22.7181C24.874 22.5435 24.7847 22.3154 24.7839 22.0784C24.7782 21.9028 24.8255 21.7295 24.9198 21.5813C25.0113 21.438 25.1441 21.326 25.3007 21.2599C25.5128 21.1696 25.7477 21.1469 25.9731 21.195C26.0558 21.3969 26.0964 21.6136 26.0924 21.8318C26.0905 21.9786 26.0475 22.122 25.9683 22.2456C25.8891 22.3692 25.7769 22.4682 25.6444 22.5314C25.4503 22.6209 25.2451 22.6837 25.0342 22.7181Z" fill="url(#paint3_linear_482_1638)"/>
<path d="M61.7007 60.4133C61.7134 60.4067 61.7278 60.4042 61.7419 60.4063C61.756 60.4084 61.7691 60.4149 61.7793 60.4249C61.7895 60.435 61.7962 60.448 61.7984 60.4621C61.8007 60.4762 61.7984 60.4906 61.7919 60.5033C61.726 60.6402 61.6328 60.7622 61.518 60.8617C61.3619 60.9953 61.1816 61.0978 60.9869 61.1635C60.793 61.2288 60.588 61.2552 60.3838 61.241C60.2321 61.2324 60.0838 61.1925 59.9482 61.1239C59.9363 61.1171 59.9266 61.107 59.9204 61.0947C59.9141 61.0825 59.9117 61.0687 59.9132 61.0551C59.9148 61.0415 59.9204 61.0286 59.9293 61.0181C59.9381 61.0076 59.9499 61 59.9631 60.9962C60.1036 60.9666 60.2287 60.9332 60.3538 60.8998C60.523 60.8544 60.6862 60.8011 60.8494 60.7479C61.0125 60.6946 61.1727 60.6374 61.3396 60.5686C61.4556 60.5234 61.572 60.4747 61.7007 60.4133Z" fill="url(#paint4_linear_482_1638)"/>
<path d="M39.5453 75.9204C41.1319 79.5712 44.682 83.8475 48.3117 85.5405C48.3205 85.5433 48.3279 85.5495 48.3321 85.5577C48.3364 85.5659 48.3372 85.5755 48.3344 85.5843C48.3316 85.5931 48.3254 85.6004 48.3172 85.6047C48.309 85.6089 48.2994 85.6098 48.2906 85.607C44.2976 84.8216 40.15 79.8994 39.4803 75.9421C39.4792 75.934 39.4809 75.9258 39.4852 75.9189C39.4895 75.912 39.4961 75.9069 39.5038 75.9043C39.5115 75.9017 39.5199 75.9019 39.5274 75.9048C39.535 75.9078 39.5413 75.9133 39.5453 75.9204Z" fill="url(#paint5_linear_482_1638)"/>
<defs>
<linearGradient id="paint0_linear_482_1638" x1="69.4532" y1="36.8224" x2="25.6938" y2="70.4838" gradientUnits="userSpaceOnUse">
<stop stop-color="#F66EFF"/>
<stop offset="1" stop-color="#04D2FF"/>
</linearGradient>
<linearGradient id="paint1_linear_482_1638" x1="27.3792" y1="29.3654" x2="20.7831" y2="34.4394" gradientUnits="userSpaceOnUse">
<stop stop-color="#F66EFF"/>
<stop offset="1" stop-color="#04D2FF"/>
</linearGradient>
<linearGradient id="paint2_linear_482_1638" x1="66.5307" y1="55.2311" x2="62.0783" y2="58.6561" gradientUnits="userSpaceOnUse">
<stop stop-color="#F66EFF"/>
<stop offset="1" stop-color="#04D2FF"/>
</linearGradient>
<linearGradient id="paint3_linear_482_1638" x1="26.0131" y1="21.4761" x2="24.7581" y2="22.4415" gradientUnits="userSpaceOnUse">
<stop stop-color="#F66EFF"/>
<stop offset="1" stop-color="#04D2FF"/>
</linearGradient>
<linearGradient id="paint4_linear_482_1638" x1="61.5128" y1="60.335" x2="60.1028" y2="61.4196" gradientUnits="userSpaceOnUse">
<stop stop-color="#F66EFF"/>
<stop offset="1" stop-color="#04D2FF"/>
</linearGradient>
<linearGradient id="paint5_linear_482_1638" x1="44.224" y1="80.539" x2="42.4568" y2="81.8984" gradientUnits="userSpaceOnUse">
<stop stop-color="#F66EFF"/>
<stop offset="1" stop-color="#04D2FF"/>
</linearGradient>
</defs>
</svg>
